<svg width="100" height="100" viewBox="0 0 100 100" fill="none" xmlns="http://www.w3.org/2000/svg">
<path d="M31.5 70C46 55 48 41.8119 47.5 34.9059C47 28 39 25.5 34 28.5C29 31.5 28 40.5 35.5 44C43 47.5 56.5821 50.9624 64.6381 57.8895C70 62.5 68.7227 69.2323 64.6381 72.5C60 76.2105 51.7893 74.2251 50 68C48.1317 61.5 54.5 55.7808 60.5 54.7809C66.5 53.7809 84 46.4059 70.5 34.9059" stroke="#FF5722" stroke-width="4.17883" stroke-linecap="round"/>
<path d="M57.5175 26.5373C56.8797 24.8793 58.2994 23.1611 60.048 23.4749L74.2136 26.0166C75.9305 26.3247 76.6796 28.3681 75.5685 29.7127L66.5698 40.6034C65.4588 41.9481 63.3108 41.5977 62.6845 39.9697L57.5175 26.5373Z" fill="#FF5722"/>
<circle cx="31" cy="69" r="9" fill="#FF5722"/>
</svg>
